<svg xmlns="http://www.w3.org/2000/svg" xmlns:xlink="http://www.w3.org/1999/xlink" width="500" zoomAndPan="magnify" viewBox="0 0 375 374.999991" height="500" preserveAspectRatio="xMidYMid meet" version="1.0"><defs><g/><clipPath id="0ca1889536"><path d="M 23 153 L 357 153 L 357 250.441406 L 23 250.441406 Z M 23 153 " clip-rule="nonzero"/></clipPath><clipPath id="88c8c8774a"><rect x="0" width="334" y="0" height="98"/></clipPath><clipPath id="97ab4fcb7a"><path d="M 1 0.558594 L 139 0.558594 L 139 130 L 1 130 Z M 1 0.558594 " clip-rule="nonzero"/></clipPath><clipPath id="8665f5ce17"><rect x="0" width="141" y="0" height="156"/></clipPath><clipPath id="9a46bf607c"><path d="M 0 0.558594 L 132 0.558594 L 132 130 L 0 130 Z M 0 0.558594 " clip-rule="nonzero"/></clipPath><clipPath id="78d86bf206"><rect x="0" width="134" y="0" height="156"/></clipPath><clipPath id="cfb78cc218"><path d="M 267 0.839844 L 361.921875 0.839844 L 361.921875 155 L 267 155 Z M 267 0.839844 " clip-rule="nonzero"/></clipPath><clipPath id="a849401285"><rect x="0" width="95" y="0" height="155"/></clipPath><clipPath id="cf11a0b26b"><rect x="0" width="362" y="0" height="251"/></clipPath></defs><rect x="-37.5" width="450" fill="#ffffff" y="-37.499999" height="449.999989" fill-opacity="1"/><rect x="-37.5" width="450" fill="#000000" y="-37.499999" height="449.999989" fill-opacity="1"/><g transform="matrix(1, 0, 0, 1, 0, 63)"><g clip-path="url(#cf11a0b26b)"><g clip-path="url(#0ca1889536)"><g transform="matrix(1, 0, 0, 1, 23, 153)"><g clip-path="url(#88c8c8774a)"><g fill="#f049ff" fill-opacity="1"><g transform="translate(0.676785, 69.776686)"><g><path d="M 11.421875 -19.578125 C 13.078125 -18.390625 15.003906 -17.289062 17.203125 -16.28125 C 19.410156 -15.269531 21.628906 -14.476562 23.859375 -13.90625 C 26.085938 -13.34375 28.144531 -13.085938 30.03125 -13.140625 C 31.925781 -13.191406 33.457031 -13.644531 34.625 -14.5 C 35.789062 -15.351562 36.375 -16.738281 36.375 -18.65625 C 36.375 -20.363281 35.722656 -21.878906 34.421875 -23.203125 C 33.128906 -24.523438 31.472656 -25.765625 29.453125 -26.921875 C 27.429688 -28.085938 25.28125 -29.265625 23 -30.453125 C 20.71875 -31.648438 18.566406 -32.960938 16.546875 -34.390625 C 14.523438 -35.816406 12.878906 -37.445312 11.609375 -39.28125 C 10.347656 -41.125 9.71875 -43.265625 9.71875 -45.703125 C 9.71875 -48.441406 10.300781 -51.117188 11.46875 -53.734375 C 12.632812 -56.359375 14.351562 -58.640625 16.625 -60.578125 C 18.90625 -62.523438 21.691406 -63.910156 24.984375 -64.734375 C 28.273438 -65.566406 32.054688 -65.582031 36.328125 -64.78125 C 40.609375 -63.976562 45.335938 -62.125 50.515625 -59.21875 L 44.609375 -47.5625 C 42.171875 -49.632812 39.75 -50.992188 37.34375 -51.640625 C 34.9375 -52.285156 32.722656 -52.414062 30.703125 -52.03125 C 28.679688 -51.644531 27.0625 -50.921875 25.84375 -49.859375 C 24.625 -48.796875 24.015625 -47.59375 24.015625 -46.25 C 24.015625 -45.050781 24.6875 -43.972656 26.03125 -43.015625 C 27.382812 -42.054688 29.132812 -41.097656 31.28125 -40.140625 C 33.425781 -39.179688 35.71875 -38.117188 38.15625 -36.953125 C 40.59375 -35.785156 42.882812 -34.410156 45.03125 -32.828125 C 47.1875 -31.253906 48.945312 -29.390625 50.3125 -27.234375 C 51.6875 -25.085938 52.375 -22.507812 52.375 -19.5 C 52.375 -16.445312 51.546875 -13.492188 49.890625 -10.640625 C 48.234375 -7.796875 45.925781 -5.335938 42.96875 -3.265625 C 40.019531 -1.191406 36.523438 0.175781 32.484375 0.84375 C 28.441406 1.519531 24.023438 1.265625 19.234375 0.078125 C 14.441406 -1.109375 9.40625 -3.570312 4.125 -7.3125 Z M 11.421875 -19.578125 "/></g></g></g><g fill="#f049ff" fill-opacity="1"><g transform="translate(57.095721, 69.776686)"><g><path d="M 3.96875 -51.296875 L 3.96875 -64.125 L 49.046875 -64.125 L 49.046875 -51.296875 L 33.8125 -51.296875 L 33.8125 0 L 19.203125 0 L 19.203125 -51.296875 Z M 3.96875 -51.296875 "/></g></g></g><g fill="#f049ff" fill-opacity="1"><g transform="translate(110.095326, 69.776686)"><g><path d="M 55.5625 -64.125 L 55.5625 -22.765625 C 55.5625 -14.835938 53.425781 -8.863281 49.15625 -4.84375 C 44.882812 -0.832031 38.679688 1.171875 30.546875 1.171875 C 22.359375 1.171875 16.140625 -0.832031 11.890625 -4.84375 C 7.640625 -8.863281 5.515625 -14.835938 5.515625 -22.765625 L 5.515625 -64.125 L 20.125 -64.125 L 20.125 -27.046875 C 20.125 -23.472656 20.488281 -20.675781 21.21875 -18.65625 C 21.945312 -16.632812 23.085938 -15.222656 24.640625 -14.421875 C 26.191406 -13.617188 28.160156 -13.21875 30.546875 -13.21875 C 32.929688 -13.21875 34.882812 -13.617188 36.40625 -14.421875 C 37.9375 -15.222656 39.078125 -16.632812 39.828125 -18.65625 C 40.578125 -20.675781 40.953125 -23.472656 40.953125 -27.046875 L 40.953125 -64.125 Z M 55.5625 -64.125 "/></g></g></g><g fill="#f049ff" fill-opacity="1"><g transform="translate(171.099266, 69.776686)"><g><path d="M 40.5625 -32.015625 C 40.5625 -35.742188 39.941406 -39.046875 38.703125 -41.921875 C 37.460938 -44.804688 35.335938 -47.050781 32.328125 -48.65625 C 29.328125 -50.257812 25.179688 -51.0625 19.890625 -51.0625 L 19.890625 -13.0625 C 25.179688 -13.0625 29.328125 -13.863281 32.328125 -15.46875 C 35.335938 -17.070312 37.460938 -19.296875 38.703125 -22.140625 C 39.941406 -24.992188 40.5625 -28.285156 40.5625 -32.015625 Z M 5.28125 -64.125 L 23.9375 -64.125 C 28.34375 -64.125 32.488281 -63.332031 36.375 -61.75 C 40.257812 -60.164062 43.691406 -57.945312 46.671875 -55.09375 C 49.648438 -52.25 51.976562 -48.867188 53.65625 -44.953125 C 55.34375 -41.046875 56.1875 -36.757812 56.1875 -32.09375 C 56.1875 -27.4375 55.34375 -23.148438 53.65625 -19.234375 C 51.976562 -15.328125 49.648438 -11.929688 46.671875 -9.046875 C 43.691406 -6.171875 40.257812 -3.941406 36.375 -2.359375 C 32.488281 -0.785156 28.34375 0 23.9375 0 L 5.28125 0 Z M 5.28125 -64.125 "/></g></g></g><g fill="#f049ff" fill-opacity="1"><g transform="translate(232.569485, 69.776686)"><g><path d="M 20.4375 -64.125 L 20.4375 0 L 5.828125 0 L 5.828125 -64.125 Z M 20.4375 -64.125 "/></g></g></g><g fill="#f049ff" fill-opacity="1"><g transform="translate(258.836162, 69.776686)"><g><path d="M 19.203125 -32.09375 C 19.203125 -28.78125 19.988281 -25.738281 21.5625 -22.96875 C 23.144531 -20.195312 25.28125 -17.96875 27.96875 -16.28125 C 30.664062 -14.59375 33.675781 -13.75 37 -13.75 C 40.3125 -13.75 43.300781 -14.59375 45.96875 -16.28125 C 48.632812 -17.96875 50.757812 -20.195312 52.34375 -22.96875 C 53.925781 -25.738281 54.71875 -28.78125 54.71875 -32.09375 C 54.71875 -35.414062 53.925781 -38.460938 52.34375 -41.234375 C 50.757812 -44.003906 48.632812 -46.21875 45.96875 -47.875 C 43.300781 -49.53125 40.3125 -50.359375 37 -50.359375 C 33.675781 -50.359375 30.664062 -49.53125 27.96875 -47.875 C 25.28125 -46.21875 23.144531 -44.003906 21.5625 -41.234375 C 19.988281 -38.460938 19.203125 -35.414062 19.203125 -32.09375 Z M 4.65625 -32.09375 C 4.65625 -36.601562 5.484375 -40.851562 7.140625 -44.84375 C 8.804688 -48.832031 11.113281 -52.367188 14.0625 -55.453125 C 17.019531 -58.535156 20.453125 -60.941406 24.359375 -62.671875 C 28.273438 -64.410156 32.488281 -65.28125 37 -65.28125 C 41.5 -65.28125 45.703125 -64.410156 49.609375 -62.671875 C 53.523438 -60.941406 56.945312 -58.535156 59.875 -55.453125 C 62.800781 -52.367188 65.09375 -48.832031 66.75 -44.84375 C 68.414062 -40.851562 69.25 -36.601562 69.25 -32.09375 C 69.25 -27.59375 68.414062 -23.332031 66.75 -19.3125 C 65.09375 -15.300781 62.800781 -11.765625 59.875 -8.703125 C 56.945312 -5.648438 53.523438 -3.238281 49.609375 -1.46875 C 45.703125 0.289062 41.5 1.171875 37 1.171875 C 32.488281 1.171875 28.273438 0.289062 24.359375 -1.46875 C 20.453125 -3.238281 17.019531 -5.648438 14.0625 -8.703125 C 11.113281 -11.765625 8.804688 -15.300781 7.140625 -19.3125 C 5.484375 -23.332031 4.65625 -27.59375 4.65625 -32.09375 Z M 4.65625 -32.09375 "/></g></g></g></g></g></g><g transform="matrix(1, 0, 0, 1, 123, 7)"><g clip-path="url(#8665f5ce17)"><g clip-path="url(#97ab4fcb7a)"><g fill="#ffffff" fill-opacity="1"><g transform="translate(0.630216, 126.215618)"><g><path d="M 125.875 -3.6875 L 82.640625 -63.296875 C 82.242188 -63.890625 82.019531 -64.601562 81.96875 -65.4375 C 81.914062 -66.28125 82.140625 -66.992188 82.640625 -67.578125 L 118.34375 -118.046875 L 92.8125 -118.046875 L 71.5625 -86.46875 C 70.382812 -84.800781 69.351562 -84.039062 68.46875 -84.1875 C 67.582031 -84.332031 66.84375 -84.75 66.25 -85.4375 C 65.664062 -86.125 65.375 -86.46875 65.375 -86.46875 L 44.125 -118.046875 L 19.921875 -118.046875 L 54.453125 -67.578125 C 55.335938 -66.203125 55.285156 -64.828125 54.296875 -63.453125 L 12.390625 -3.6875 L 37.78125 -3.6875 L 65.375 -43.53125 C 66.550781 -45.207031 67.582031 -45.96875 68.46875 -45.8125 C 69.351562 -45.664062 70.085938 -45.25 70.671875 -44.5625 C 71.265625 -43.875 71.5625 -43.53125 71.5625 -43.53125 L 99.15625 -3.6875 Z M 133.09375 3.6875 L 97.25 3.6875 C 95.96875 3.6875 94.929688 3.144531 94.140625 2.0625 L 68.46875 -34.96875 L 42.796875 2.0625 C 42.003906 3.144531 40.96875 3.6875 39.6875 3.6875 L 5.3125 3.6875 C 5.3125 3.6875 4.96875 3.660156 4.28125 3.609375 C 3.59375 3.566406 2.90625 3.375 2.21875 3.03125 C 1.53125 2.6875 1.109375 2.117188 0.953125 1.328125 C 0.804688 0.535156 1.273438 -0.59375 2.359375 -2.0625 L 46.921875 -65.515625 L 9.890625 -119.671875 C 9.890625 -119.671875 9.738281 -119.960938 9.4375 -120.546875 C 9.144531 -121.140625 8.925781 -121.804688 8.78125 -122.546875 C 8.632812 -123.285156 8.851562 -123.945312 9.4375 -124.53125 C 10.03125 -125.125 11.210938 -125.421875 12.984375 -125.421875 L 46.046875 -125.421875 C 47.316406 -125.421875 48.347656 -124.882812 49.140625 -123.8125 L 68.46875 -95.171875 L 87.796875 -123.8125 C 88.585938 -124.882812 89.625 -125.421875 90.90625 -125.421875 L 125.421875 -125.421875 C 125.421875 -125.421875 125.765625 -125.394531 126.453125 -125.34375 C 127.148438 -125.300781 127.84375 -125.109375 128.53125 -124.765625 C 129.21875 -124.421875 129.632812 -123.851562 129.78125 -123.0625 C 129.925781 -122.28125 129.457031 -121.148438 128.375 -119.671875 L 90.15625 -65.515625 L 136.046875 -2.21875 C 136.046875 -2.21875 136.21875 -1.921875 136.5625 -1.328125 C 136.90625 -0.734375 137.148438 -0.046875 137.296875 0.734375 C 137.453125 1.523438 137.234375 2.210938 136.640625 2.796875 C 136.046875 3.390625 134.863281 3.6875 133.09375 3.6875 Z M 133.09375 3.6875 "/></g></g></g></g></g></g><g transform="matrix(1, 0, 0, 1, 0, 7)"><g clip-path="url(#78d86bf206)"><g clip-path="url(#9a46bf607c)"><g fill="#ffffff" fill-opacity="1"><g transform="translate(-2.480684, 126.215618)"><g><path d="M 59.03125 -3.6875 L 75.84375 -3.6875 L 123.8125 -118.046875 L 100.640625 -118.046875 L 70.828125 -40.4375 C 70.234375 -38.757812 69.539062 -37.796875 68.75 -37.546875 C 67.96875 -37.304688 67.207031 -37.429688 66.46875 -37.921875 C 65.738281 -38.410156 65.148438 -38.953125 64.703125 -39.546875 C 64.265625 -40.140625 64.046875 -40.4375 64.046875 -40.4375 L 34.234375 -118.046875 L 11.0625 -118.046875 Z M 53.125 1.46875 L 2.0625 -120.265625 C 2.0625 -120.265625 1.914062 -120.707031 1.625 -121.59375 C 1.332031 -122.476562 1.378906 -123.335938 1.765625 -124.171875 C 2.160156 -125.003906 3.390625 -125.421875 5.453125 -125.421875 L 36.75 -125.421875 C 38.414062 -125.421875 39.546875 -124.632812 40.140625 -123.0625 L 67.4375 -52.09375 L 94.734375 -123.0625 C 95.328125 -124.632812 96.457031 -125.421875 98.125 -125.421875 L 129.40625 -125.421875 C 129.40625 -125.421875 129.847656 -125.394531 130.734375 -125.34375 C 131.617188 -125.300781 132.378906 -124.9375 133.015625 -124.25 C 133.660156 -123.5625 133.59375 -122.234375 132.8125 -120.265625 L 81.75 1.46875 C 81.15625 2.945312 80.023438 3.6875 78.359375 3.6875 L 56.515625 3.6875 C 54.847656 3.6875 53.71875 2.945312 53.125 1.46875 Z M 53.125 1.46875 "/></g></g></g></g></g></g><g clip-path="url(#cfb78cc218)"><g transform="matrix(1, 0, 0, 1, 267, 0)"><g clip-path="url(#a849401285)"><g fill="#ffffff" fill-opacity="1"><g transform="translate(68.3721, 154.476079)"><g><path d="M -36.546875 -5.03125 L -50.5 -5.03125 L -61.90625 -22.671875 L -61.90625 -29.34375 L 0 -29.34375 L 0 -15.234375 L -43.15625 -15.234375 Z M -36.546875 -5.03125 "/></g></g></g><g fill="#ffffff" fill-opacity="1"><g transform="translate(68.3721, 120.184016)"><g><path d="M -30.921875 -18.84375 C -24.265625 -18.84375 -19.320312 -19.800781 -16.09375 -21.71875 C -12.863281 -23.644531 -11.25 -26.335938 -11.25 -29.796875 C -11.25 -33.148438 -12.863281 -35.800781 -16.09375 -37.75 C -19.320312 -39.695312 -24.265625 -40.671875 -30.921875 -40.671875 C -37.171875 -40.671875 -42.019531 -39.695312 -45.46875 -37.75 C -48.925781 -35.800781 -50.65625 -33.148438 -50.65625 -29.796875 C -50.65625 -26.335938 -48.925781 -23.644531 -45.46875 -21.71875 C -42.019531 -19.800781 -37.171875 -18.84375 -30.921875 -18.84375 Z M -30.921875 -4.578125 C -36.273438 -4.578125 -40.960938 -5.25 -44.984375 -6.59375 C -49.015625 -7.945312 -52.367188 -9.800781 -55.046875 -12.15625 C -57.722656 -14.507812 -59.722656 -17.195312 -61.046875 -20.21875 C -62.378906 -23.25 -63.046875 -26.441406 -63.046875 -29.796875 C -63.046875 -33.097656 -62.378906 -36.25 -61.046875 -39.25 C -59.722656 -42.25 -57.722656 -44.925781 -55.046875 -47.28125 C -52.367188 -49.632812 -49.015625 -51.5 -44.984375 -52.875 C -40.960938 -54.25 -36.273438 -54.9375 -30.921875 -54.9375 C -25.160156 -54.9375 -20.253906 -54.25 -16.203125 -52.875 C -12.148438 -51.5 -8.847656 -49.632812 -6.296875 -47.28125 C -3.742188 -44.925781 -1.867188 -42.25 -0.671875 -39.25 C 0.523438 -36.25 1.125 -33.097656 1.125 -29.796875 C 1.125 -26.441406 0.523438 -23.25 -0.671875 -20.21875 C -1.867188 -17.195312 -3.742188 -14.507812 -6.296875 -12.15625 C -8.847656 -9.800781 -12.148438 -7.945312 -16.203125 -6.59375 C -20.253906 -5.25 -25.160156 -4.578125 -30.921875 -4.578125 Z M -30.921875 -4.578125 "/></g></g></g><g fill="#ffffff" fill-opacity="1"><g transform="translate(68.3721, 60.754453)"><g><path d="M -30.921875 -18.84375 C -24.265625 -18.84375 -19.320312 -19.800781 -16.09375 -21.71875 C -12.863281 -23.644531 -11.25 -26.335938 -11.25 -29.796875 C -11.25 -33.148438 -12.863281 -35.800781 -16.09375 -37.75 C -19.320312 -39.695312 -24.265625 -40.671875 -30.921875 -40.671875 C -37.171875 -40.671875 -42.019531 -39.695312 -45.46875 -37.75 C -48.925781 -35.800781 -50.65625 -33.148438 -50.65625 -29.796875 C -50.65625 -26.335938 -48.925781 -23.644531 -45.46875 -21.71875 C -42.019531 -19.800781 -37.171875 -18.84375 -30.921875 -18.84375 Z M -30.921875 -4.578125 C -36.273438 -4.578125 -40.960938 -5.25 -44.984375 -6.59375 C -49.015625 -7.945312 -52.367188 -9.800781 -55.046875 -12.15625 C -57.722656 -14.507812 -59.722656 -17.195312 -61.046875 -20.21875 C -62.378906 -23.25 -63.046875 -26.441406 -63.046875 -29.796875 C -63.046875 -33.097656 -62.378906 -36.25 -61.046875 -39.25 C -59.722656 -42.25 -57.722656 -44.925781 -55.046875 -47.28125 C -52.367188 -49.632812 -49.015625 -51.5 -44.984375 -52.875 C -40.960938 -54.25 -36.273438 -54.9375 -30.921875 -54.9375 C -25.160156 -54.9375 -20.253906 -54.25 -16.203125 -52.875 C -12.148438 -51.5 -8.847656 -49.632812 -6.296875 -47.28125 C -3.742188 -44.925781 -1.867188 -42.25 -0.671875 -39.25 C 0.523438 -36.25 1.125 -33.097656 1.125 -29.796875 C 1.125 -26.441406 0.523438 -23.25 -0.671875 -20.21875 C -1.867188 -17.195312 -3.742188 -14.507812 -6.296875 -12.15625 C -8.847656 -9.800781 -12.148438 -7.945312 -16.203125 -6.59375 C -20.253906 -5.25 -25.160156 -4.578125 -30.921875 -4.578125 Z M -30.921875 -4.578125 "/></g></g></g></g></g></g></g></g></svg>